<svg xmlns="http://www.w3.org/2000/svg" viewBox="0 0 1280 211">
    <defs>
        <clipPath id="a">
            <rect width="1280" height="211" fill="#fff" rx="15"/>
        </clipPath>
    </defs>
    <g clip-path="url(#a)">
        <rect width="1280" height="211" fill="#010404" rx="15"/>
        <g fill="#C6DAE9" opacity=".1">
            <path d="M26.4 105.6H60c9.5 0 16.6-2.2 21.4-6.5 5-4.3 7.4-10.7 7.4-19 0-8.4-2.4-14.8-7.4-19.1-4.8-4.4-11.9-6.5-21.4-6.5H26.1l13.7-12.1V211h-56.1V-.1h78c16.8 0 31.5 3 44 9.3a66 66 0 0 1 29.5 27 84.7 84.7 0 0 1 10.6 44c0 17.5-3.5 32.3-10.6 44.3a68.9 68.9 0 0 1-29.4 27c-12.6 6-27.3 9-44 9H26.4v-54.9Zm171.6 22h88.4v51.8h-88.3v-51.8ZM147 211 221.5-.1h56.1l68 211.1h-56.5L238.7 38H261l-58 173h-56Zm374.8 0L422.3 70.3l21.1-5.6V211h-56.1V-.1h52.4l99.2 140.7-21.1 5.6V0h56.4v211h-52.4Zm105.6 0V-.1h77.2c23 0 42.3 4.2 58 12.7a83.4 83.4 0 0 1 36.2 36 120.4 120.4 0 0 1 12.4 56.7c0 22.1-4 41.1-12.4 57a85.3 85.3 0 0 1-36.2 36.3c-16 8.3-35.4 12.4-58.3 12.4h-76.9Zm56.1-29.8L659 156.4h41c11.5 0 21.2-1.6 29-5 8.1-3.4 14.2-9 18.4-16.3a60 60 0 0 0 6.5-29.8c0-12.2-2-22-6.2-29.5a35.8 35.8 0 0 0-18.3-16 71.3 71.3 0 0 0-29.1-5.3h-43.4l26.6-14.6v141.3Zm524.5 34.1c-22.3 0-41.5-4.6-57.6-14a95.1 95.1 0 0 1-37.2-38.4 121 121 0 0 1-13-57.3c0-16.1 2.6-30.9 7.7-44.3 5.2-13.5 12.5-25 22-34.7A94 94 0 0 1 1164 3.9a116 116 0 0 1 44-8c25.3 0 46.2 5.7 62.7 17.3a95.6 95.6 0 0 1 36 50.9L1257 85a62 62 0 0 0-18.9-25.7c-7.8-6-17.8-9-30-9a53 53 0 0 0-26.4 6.5 45.5 45.5 0 0 0-18 19 66 66 0 0 0-6.2 29.7 66 66 0 0 0 6.2 29.8 45.5 45.5 0 0 0 18 18.9 54.6 54.6 0 0 0 26.4 6.2c12.2 0 22.2-3 30-8.7a62 62 0 0 0 19-25.7l49.5 21a97.2 97.2 0 0 1-36 51.2c-16.4 11.4-37.3 17-62.5 17Z"/>
            <path d="M26.4 105.6H60c9.5 0 16.6-2.2 21.4-6.5 5-4.3 7.4-10.7 7.4-19 0-8.4-2.4-14.8-7.4-19.1-4.8-4.4-11.9-6.5-21.4-6.5H26.1l13.7-12.1V211h-56.1V-.1h78c16.8 0 31.5 3 44 9.3a66 66 0 0 1 29.5 27 84.7 84.7 0 0 1 10.6 44c0 17.5-3.5 32.3-10.6 44.3a68.9 68.9 0 0 1-29.4 27c-12.6 6-27.3 9-44 9H26.4v-54.9Zm171.6 22h88.4v51.8h-88.3v-51.8ZM147 211 221.5-.1h56.1l68 211.1h-56.5L238.7 38H261l-58 173h-56Zm374.8 0L422.3 70.3l21.1-5.6V211h-56.1V-.1h52.4l99.2 140.7-21.1 5.6V0h56.4v211h-52.4Zm105.6 0V-.1h77.2c23 0 42.3 4.2 58 12.7a83.4 83.4 0 0 1 36.2 36 120.4 120.4 0 0 1 12.4 56.7c0 22.1-4 41.1-12.4 57a85.3 85.3 0 0 1-36.2 36.3c-16 8.3-35.4 12.4-58.3 12.4h-76.9Zm56.1-29.8L659 156.4h41c11.5 0 21.2-1.6 29-5 8.1-3.4 14.2-9 18.4-16.3a60 60 0 0 0 6.5-29.8c0-12.2-2-22-6.2-29.5a35.8 35.8 0 0 0-18.3-16 71.3 71.3 0 0 0-29.1-5.3h-43.4l26.6-14.6v141.3Zm524.5 34.1c-22.3 0-41.5-4.6-57.6-14a95.1 95.1 0 0 1-37.2-38.4 121 121 0 0 1-13-57.3c0-16.1 2.6-30.9 7.7-44.3 5.2-13.5 12.5-25 22-34.7A94 94 0 0 1 1164 3.9a116 116 0 0 1 44-8c25.3 0 46.2 5.7 62.7 17.3a95.6 95.6 0 0 1 36 50.9L1257 85a62 62 0 0 0-18.9-25.7c-7.8-6-17.8-9-30-9a53 53 0 0 0-26.4 6.5 45.5 45.5 0 0 0-18 19 66 66 0 0 0-6.2 29.7 66 66 0 0 0 6.2 29.8 45.5 45.5 0 0 0 18 18.9 54.6 54.6 0 0 0 26.4 6.2c12.2 0 22.2-3 30-8.7a62 62 0 0 0 19-25.7l49.5 21a97.2 97.2 0 0 1-36 51.2c-16.4 11.4-37.3 17-62.5 17Zm-138-101.9c0 64.9-50.8 101.6-114.2 101.6-63.4 0-109.8-28-109.8-101.6C846 48.4 892.4-24 955.8-24S1070 48.4 1070 113.4Z"/>
        </g>
        <path fill="#fff"
              d="M1070 113.4c0 64.9-50.8 101.6-114.2 101.6-63.4 0-109.8-28-109.8-101.6C846 48.4 892.4-24 955.8-24S1070 48.4 1070 113.4Z"
              opacity=".1" style="mix-blend-mode:color-dodge"/>
        <path fill="#000" stroke="#000"
              d="M1043.7-29c4.9-.6 9.9 0 14.6 1.7a50 50 0 0 1 13.8 7.8c4 3.7 7.4 8 10 12.7 2.3 4.9 3.8 10 4.5 15.4.4 4.4 0 10.8-1 14a54.3 54.3 0 0 1-18.2 25.2 44.8 44.8 0 0 1-8.2 3.9h-.4a3 3 0 0 1-2.9-.6c-1-.7-2-2-3.3-4.3l-1.2-2a613 613 0 0 0-8.7-13.6l-.7-1.1c-3.8-5.6-8.1-10.9-12.8-15.8-4.2-4.2-8.5-8.3-12.9-12.3l-.8-.7c-1.8-1.7-3-3-3.5-4a4 4 0 0 1-.5-1.6c0-.5 0-1 .2-1.7a59.8 59.8 0 0 1 5-8.6l.5-.5c3.3-4 7.3-7.3 11.9-9.6 4.6-2.2 9.5-3.6 14.6-4.4Zm-176.9.7c-5-.5-9.9.3-14.5 2.2a49 49 0 0 0-13.5 8.3 49.8 49.8 0 0 0-9.6 13.1c-2.1 5-3.4 10.2-3.9 15.5-.2 4.5.4 10.8 1.5 14a53.8 53.8 0 0 0 19 24.6 44.8 44.8 0 0 0 8.4 3.5h.4c1.2.2 2 0 2.9-.7a16 16 0 0 0 3.1-4.5l1.2-2c2.6-4.6 5.3-9.3 8.1-13.9l.7-1.1c3.7-5.8 7.7-11.2 12.2-16.2 4.1-4.4 8.3-8.6 12.5-12.8l.8-.8c1.7-1.7 2.8-3 3.3-4a4 4 0 0 0 .5-1.7c0-.5 0-1-.3-1.6-.3-.9-1-2.3-2.1-4l-3.2-4.4-.5-.6c-3.4-3.9-7.6-7-12.2-9.1a54 54 0 0 0-14.8-3.9Zm88.1 163.6c7.2 0 12 .1 15.3.5 3.3.3 5 .9 6.2 1.7a7.7 7.7 0 0 1 3 5.2c0 .8-.3 2-.8 3.3-.5 1.2-1.2 2.5-2 3.5a36 36 0 0 1-7.8 6.8 98.7 98.7 0 0 0-8.3 5.7c-1.2 1-2 2-2.5 3a6.1 6.1 0 0 0 0 3.7 9.8 9.8 0 0 0 5 5.7 26 26 0 0 0 9 1.8c1.6 0 2.9.2 3.8.5 1 .4 1.5.9 1.7 1.4a3 3 0 0 1 0 1.9 4 4 0 0 1-.9 2c-.4.4-1.2 1-2.4 1.3-1 .4-2.3.6-3.5.6a37 37 0 0 1-10.6-2.3l-6.3-2.4h-.3a57.7 57.7 0 0 1-16.8 4.7 14.7 14.7 0 0 1-6.8-1.8l-.3-.3c-1.3-1-1.7-2.4-1.3-3.5.2-.7.8-1.2 1.8-1.6 1-.3 2.5-.5 4.6-.5a30.3 30.3 0 0 0 9.4-1.8c1.7-.8 3.2-2 4.4-3.4.4-.5.7-1.3.9-2.2a9 9 0 0 0 .3-2.3v-.4c0-1-.5-2.1-1.3-3.2-.9-1-2-2-3.5-2.9a78.5 78.5 0 0 1-9.5-7.2l-.6-.5c-2.2-2-3.6-3.5-4.4-5-.8-1.4-1-2.8-1-4.7 0-2 .1-3.2.6-4 .5-.8 1.3-1.3 2.8-2l2.8-.4a230.5 230.5 0 0 1 19.3-.9Zm-38.7-71.5c2 0 3.6.2 5 .8 1.5.6 2.8 1.6 4.4 3.2a19.6 19.6 0 0 1 5 9.4c.8 4 .3 7.2-2 12.6a172 172 0 0 1-19.2 30.6 58.4 58.4 0 0 1-5.3 5.5 33.7 33.7 0 0 1-7.6 3.2c-1 .2-2.4.2-4-.2-1.7-.3-3.5-1-5.3-1.7a15 15 0 0 1-5.2-3.4c-1.2-1.4-2-3.1-3.1-5.8l-.3-.8a25 25 0 0 1-1.5-11.4l.1-.9A53.2 53.2 0 0 1 890.8 78c3.8-3.9 8-7.3 12.6-10s9.4-4.2 12.8-4.2Zm71.2 1.4a22 22 0 0 1 9.5-1.1h.6a33 33 0 0 1 11.4 4.5 61.2 61.2 0 0 1 19.7 25.7l.4 1c1.7 4.2 3 10.5 3 14a30.2 30.2 0 0 1-2.1 10.7 18.7 18.7 0 0 1-5.4 6.2 26.2 26.2 0 0 1-7 2.7l-.4.1c-2.6.6-6.3 0-10-1.7-4.1-2-7.4-5.3-12.8-13.4-3.5-5.2-6.8-10.7-10-16.2l-1.3-2.4a30 30 0 0 1-4-14 30.3 30.3 0 0 1 2-10.4 15.9 15.9 0 0 1 6.4-5.7Z"/>
        <g fill="#000" style="mix-blend-mode:plus-darker">
            <path stroke="#000"
                  d="M1043.7-29c4.9-.6 9.9 0 14.6 1.7a50 50 0 0 1 13.8 7.8c4 3.7 7.4 8 10 12.7 2.3 4.9 3.8 10 4.5 15.4.4 4.4 0 10.8-1 14a54.3 54.3 0 0 1-18.2 25.2 44.8 44.8 0 0 1-8.2 3.9h-.4a3 3 0 0 1-2.9-.6c-1-.7-2-2-3.3-4.3l-1.2-2a613 613 0 0 0-8.7-13.6l-.7-1.1c-3.8-5.6-8.1-10.9-12.8-15.8-4.2-4.2-8.5-8.3-12.9-12.3l-.8-.7c-1.8-1.7-3-3-3.5-4a4 4 0 0 1-.5-1.6c0-.5 0-1 .2-1.7a59.8 59.8 0 0 1 5-8.6l.5-.5c3.3-4 7.3-7.3 11.9-9.6 4.6-2.2 9.5-3.6 14.6-4.4Z"/>
            <path d="M861 48c-2.5 4.6-3.9 5.8-6.5 5.4a34 34 0 0 1-9-3.5 47.4 47.4 0 0 1-11.5-11 57.4 57.4 0 0 1-7.7-13.9c-1-3.3-1.7-9.7-1.5-14.2.5-5.4 1.8-10.7 4-15.7a47 47 0 0 1 9.7-13.2 48 48 0 0 1 13.6-8.5c4.7-1.9 9.7-2.7 14.8-2.2 5.1.5 10.1 1.8 14.9 3.8A37 37 0 0 1 900-6.6c.9 2.5 0 4.4-4.5 8.7-4.2 4.1-8.3 8.4-12.4 12.7-4.8 5.4-9 11.2-12.8 17.3-3.2 5.2-6.3 10.5-9.3 15.9Z"/>
            <path stroke="#000"
                  d="M954.9 135.3c7.2 0 12 .1 15.3.5 3.3.3 5 .9 6.2 1.7a7.7 7.7 0 0 1 3 5.2c0 .8-.3 2-.8 3.3-.5 1.2-1.2 2.5-2 3.5a36 36 0 0 1-7.8 6.8 98.7 98.7 0 0 0-8.3 5.7c-1.2 1-2 2-2.5 3a6.1 6.1 0 0 0 0 3.7 9.8 9.8 0 0 0 5 5.7 26 26 0 0 0 9 1.8c1.6 0 2.9.2 3.8.5 1 .4 1.5.9 1.7 1.4a3 3 0 0 1 0 1.9 4 4 0 0 1-.9 2c-.4.4-1.2 1-2.4 1.3-1 .4-2.3.6-3.5.6a37 37 0 0 1-10.6-2.3l-6.3-2.4h-.3a57.7 57.7 0 0 1-16.8 4.7 14.7 14.7 0 0 1-6.8-1.8l-.3-.3c-1.3-1-1.7-2.4-1.3-3.5.2-.7.8-1.2 1.8-1.6 1-.3 2.5-.5 4.6-.5a30.3 30.3 0 0 0 9.4-1.8c1.7-.8 3.2-2 4.4-3.4.4-.5.7-1.3.9-2.2a9 9 0 0 0 .3-2.3v-.4c0-1-.5-2.1-1.3-3.2-.9-1-2-2-3.5-2.9a78.5 78.5 0 0 1-9.5-7.2l-.6-.5c-2.2-2-3.6-3.5-4.4-5-.8-1.4-1-2.8-1-4.7 0-2 .1-3.2.6-4 .5-.8 1.3-1.3 2.8-2l2.8-.4a230.5 230.5 0 0 1 19.3-.9Zm-38.7-71.5c2 0 3.6.2 5 .8 1.5.6 2.8 1.6 4.4 3.2a19.6 19.6 0 0 1 5 9.4c.8 4 .3 7.2-2 12.6a172 172 0 0 1-19.2 30.6 58.4 58.4 0 0 1-5.3 5.5 33.7 33.7 0 0 1-7.6 3.2c-1 .2-2.4.2-4-.2-1.7-.3-3.5-1-5.3-1.7a15 15 0 0 1-5.2-3.4c-1.2-1.4-2-3.1-3.1-5.8l-.3-.8a25 25 0 0 1-1.5-11.4l.1-.9A53.2 53.2 0 0 1 890.8 78c3.8-3.9 8-7.3 12.6-10s9.4-4.2 12.8-4.2Zm71.2 1.4a22 22 0 0 1 9.5-1.1h.6a33 33 0 0 1 11.4 4.5 61.2 61.2 0 0 1 19.7 25.7l.4 1c1.7 4.2 3 10.5 3 14a30.2 30.2 0 0 1-2.1 10.7 18.7 18.7 0 0 1-5.4 6.2 26.2 26.2 0 0 1-7 2.7l-.4.1c-2.6.6-6.3 0-10-1.7-4.1-2-7.4-5.3-12.8-13.4-3.5-5.2-6.8-10.7-10-16.2l-1.3-2.4a30 30 0 0 1-4-14 30.3 30.3 0 0 1 2-10.4 15.9 15.9 0 0 1 6.4-5.7Z"/>
        </g>
    </g>
</svg>
